<svg width="818" height="469" viewBox="0 0 818 469" fill="none" xmlns="http://www.w3.org/2000/svg">
<g opacity="0.7" clip-path="url(#clip0_3125_288)">
<path d="M710.58 376.33L705.75 384.85L732.53 418.92L732.86 418.66L733.19 418.4L706.76 384.77L711.02 377.23L753.45 382.57C763.67 383.86 772.15 391.08 775.05 400.96L781.21 421.92L760.07 427.44C757.9 428.01 755.7 428.28 753.53 428.28C745.71 428.28 738.16 424.73 733.18 418.39L732.85 418.65L732.52 418.91C737.66 425.45 745.45 429.12 753.53 429.12C755.77 429.12 758.04 428.84 760.28 428.25L782.26 422.51L775.86 400.71C772.86 390.51 764.11 383.05 753.55 381.72L710.56 376.31L710.58 376.33Z" fill="#EE864A"/>
<path d="M694.29 397.35L686.78 402.33L696.4 444.07L696.81 443.98L697.22 443.89L687.73 402.72L694.27 398.38L728.5 423.14C735.76 428.39 740.07 436.91 740.07 445.53C740.07 446.71 739.99 447.9 739.82 449.08L736.91 469.78L716.71 464.41C707.17 461.87 699.5 453.81 697.21 443.89L696.8 443.98L696.39 444.07C698.75 454.3 706.63 462.59 716.49 465.22L737.61 470.84L740.66 449.2C740.83 447.98 740.91 446.75 740.91 445.53C740.91 436.62 736.47 427.86 728.99 422.45L694.29 397.35Z" fill="#EE864A"/>
<path d="M671.32 404.12L662.66 404.46L649.82 445.1C648.89 448.04 648.44 451.08 648.44 454.1C648.44 461.32 651.01 468.41 655.78 473.61L670.3 489.43L683.55 472.53C687.43 467.58 689.44 461.28 689.44 454.88C689.44 451.08 688.73 447.25 687.27 443.64L671.32 404.13V404.12ZM650.63 445.34L663.29 405.27L670.76 404.98L686.49 443.94C687.9 447.44 688.6 451.17 688.6 454.86C688.6 461.08 686.64 467.21 682.89 471.99L670.25 488.11L656.41 473.02C651.79 467.99 649.29 461.1 649.29 454.08C649.29 451.14 649.73 448.18 650.63 445.33" fill="#EE864A"/>
<path d="M640.7 397.51L609.32 425.85C602.69 431.84 598.8 440.6 598.79 449.06C598.79 450.4 598.89 451.73 599.09 453.04L602.24 473.68L621.56 465.75C630.55 462.05 637.6 453.13 639.6 442.98L647.74 401.49L640.7 397.51ZM609.89 426.48L640.81 398.55L646.79 401.93L638.77 442.82C636.84 452.7 629.93 461.41 621.24 464.97L602.91 472.49L599.92 452.91C599.73 451.64 599.63 450.36 599.63 449.06C599.63 440.85 603.42 432.3 609.87 426.47" fill="#EE864A"/>
<path d="M625 379.02L584.12 388.39C574.13 390.68 565.19 397.65 561.28 406.21L552.88 424.67L573.06 426.75C573.94 426.84 574.84 426.88 575.74 426.88C584.38 426.88 593.62 422.8 599.98 416.04L628.72 385.5L625.01 379.03L625 379.02ZM584.31 389.21L624.58 379.99L627.67 385.38L599.36 415.47C593.16 422.06 584.11 426.05 575.73 426.04C574.86 426.04 573.99 426 573.14 425.91L554.13 423.95L562.05 406.56C565.81 398.28 574.57 391.44 584.31 389.21Z" fill="#EE864A"/>
<path d="M569.79 341.77C562.85 341.77 556.01 343.74 550.85 347.45L534.5 359.23L551.12 370.62C556.14 374.06 562.67 375.86 569.31 375.86C572.86 375.86 576.44 375.34 579.84 374.29L619.82 361.87L619.73 354.55L579.46 343.09C576.31 342.2 573.03 341.76 569.78 341.76M569.31 375.02C562.82 375.02 556.46 373.25 551.6 369.93L535.97 359.22L551.34 348.14C556.32 344.55 563 342.61 569.78 342.62C572.96 342.62 576.17 343.05 579.23 343.92L618.89 355.21L618.96 361.27L579.58 373.5C576.26 374.53 572.77 375.03 569.3 375.03" fill="#EE864A"/>
<path d="M732.62 243.25L719.54 255.77C713.81 261.26 707.75 270.63 704.03 279.72L688.69 317.23L691.83 319.01L716.08 286.55C721.96 278.68 726.87 268.65 728.62 260.92L732.62 243.26V243.25ZM691.6 317.9L689.76 316.86L704.81 280.04C708.48 271.06 714.52 261.74 720.12 256.38L731.17 245.8L727.79 260.72C726.08 268.29 721.21 278.26 715.4 286.03L691.59 317.9H691.6Z" fill="#EE864A"/>
<path d="M574.07 292.49C573.76 292.49 573.45 292.49 573.14 292.51L553.7 293.2L563.12 310.23C567.46 318.07 576.54 324.76 586.32 327.38L626.4 338.07L629.6 332.42L599.8 303.57C592.77 296.77 582.82 292.5 574.08 292.5M625.98 337.08L586.54 326.56C576.98 324.02 568.05 317.41 563.86 309.82L555.11 294L573.18 293.35C573.48 293.34 573.78 293.33 574.08 293.33H574.1C582.56 293.33 592.36 297.52 599.21 304.16L628.54 332.56L625.99 337.08H625.98Z" fill="#EE864A"/>
<path d="M599.97 244.66L600.67 263.64C601 272.33 605.67 282.56 612.61 289.82L641.08 319.61L646.12 316.62L633.58 277.36C630.52 267.8 623.77 258.8 616.3 254.35L599.97 244.65V244.66ZM641.23 318.54L613.22 289.23C606.42 282.12 601.82 272.02 601.51 263.6L600.87 246.17L615.87 255.07C623.11 259.37 629.79 268.24 632.77 277.61L645.1 316.22L641.22 318.53L641.23 318.54Z" fill="#EE864A"/>
<path d="M664.81 226.19L657.37 243.18C655.26 248 654.17 254.19 654.17 260.53C654.17 264.32 654.56 268.16 655.36 271.8L664.15 311.78L669.26 311.67L676.27 271.34C676.77 268.46 677.01 265.47 677.01 262.48C677.01 255.29 675.61 248.17 672.99 242.84L664.81 226.2V226.19ZM664.82 310.92L656.18 271.62C655.39 268.05 655.01 264.26 655.01 260.53C655.01 254.29 656.09 248.2 658.13 243.52L664.84 228.2L672.22 243.21C674.77 248.38 676.15 255.41 676.15 262.48C676.15 265.42 675.91 268.37 675.42 271.19L668.53 310.84L664.81 310.92H664.82Z" fill="#EE864A"/>
<path d="M781.69 292.67L763.19 293.96C754.8 294.55 744.53 299.05 736.9 305.45L705.55 331.77L708.02 336.25L747 323.75C756.48 320.71 765.76 314.41 770.73 307.63L781.68 292.66L781.69 292.67ZM708.43 335.24L706.63 331.98L737.45 306.1C744.94 299.81 755.11 295.37 763.25 294.8L779.94 293.64L770.06 307.14C765.24 313.73 756.07 319.97 746.75 322.95L708.43 335.23V335.24Z" fill="#EE864A"/>
<path d="M760.07 345.88C758.39 345.88 756.72 345.97 755.08 346.15L714.25 350.59L713.69 356.06L752.75 368.75L752.88 368.35L753.01 367.95L714.6 355.47L715.03 351.36L755.18 347C756.79 346.82 758.43 346.74 760.08 346.74H760.09C768.42 346.74 776.95 348.93 782.77 352.67L797.15 361.92L781.19 368.03C777.35 369.5 772.69 370.24 767.82 370.24C762.87 370.24 757.72 369.48 753.02 367.95L752.89 368.35L752.76 368.75C757.55 370.31 762.79 371.08 767.82 371.08C772.85 371.08 777.53 370.33 781.49 368.81L799.01 362.1L783.23 351.95C777.22 348.09 768.56 345.89 760.08 345.88" fill="#EE864A"/>
<path d="M390.3 341.77C383.36 341.77 376.52 343.74 371.36 347.45L355.02 359.23L371.64 370.62C376.66 374.06 383.19 375.86 389.83 375.86C393.38 375.86 396.96 375.34 400.36 374.29L440.34 361.87L440.25 354.55L399.98 343.09C396.84 342.2 393.55 341.76 390.3 341.76M389.82 375.02C383.33 375.02 376.97 373.25 372.11 369.93L356.48 359.22L371.85 348.14C376.83 344.55 383.51 342.61 390.29 342.62C393.47 342.62 396.68 343.05 399.74 343.92L439.4 355.21L439.47 361.27L400.09 373.5C396.77 374.53 393.28 375.03 389.81 375.03" fill="#EE864A"/>
<path d="M35.28 326.19C28.34 326.19 21.5 328.16 16.34 331.87L0 343.65L16.62 355.04C21.64 358.48 28.17 360.28 34.81 360.28C38.36 360.28 41.94 359.76 45.34 358.71L85.32 346.29L85.23 338.97L44.96 327.51C41.81 326.62 38.53 326.18 35.28 326.18M34.81 359.44C28.32 359.44 21.96 357.67 17.1 354.35L1.47 343.64L16.84 332.56C21.82 328.97 28.5 327.03 35.28 327.04C38.46 327.04 41.67 327.47 44.73 328.34L84.39 339.63L84.46 345.69L45.08 357.92C41.76 358.95 38.27 359.45 34.8 359.45" fill="#EE864A"/>
<path d="M394.58 292.49C394.27 292.49 393.96 292.49 393.65 292.51L374.21 293.2L383.63 310.23C387.97 318.07 397.05 324.76 406.83 327.38L446.91 338.07L450.11 332.42L420.31 303.57C413.28 296.77 403.33 292.5 394.59 292.5M446.48 337.08L407.04 326.56C397.48 324.02 388.55 317.41 384.36 309.82L375.61 294L393.68 293.35C393.98 293.34 394.28 293.33 394.58 293.33H394.6C403.06 293.33 412.86 297.52 419.71 304.16L449.04 332.56L446.49 337.08H446.48Z" fill="#EE864A"/>
<path d="M394.58 276.91C394.27 276.91 393.96 276.91 393.65 276.93L374.21 277.62L383.63 294.65C387.97 302.49 397.05 309.18 406.83 311.8L446.91 322.49L450.11 316.84L420.31 287.99C413.28 281.19 403.33 276.92 394.59 276.92M446.48 321.5L407.04 310.98C397.48 308.44 388.55 301.83 384.36 294.24L375.61 278.42L393.68 277.77C393.98 277.76 394.28 277.75 394.58 277.75H394.6C403.06 277.75 412.86 281.94 419.71 288.58L449.04 316.98L446.49 321.5H446.48Z" fill="#EE864A"/>
<path d="M433.29 457.17L401.91 485.51C395.28 491.5 391.39 500.26 391.38 508.72C391.38 510.06 391.48 511.39 391.68 512.7L394.83 533.34L414.15 525.41C423.14 521.71 430.19 512.79 432.19 502.64L440.33 461.15L433.29 457.17ZM402.48 486.14L433.4 458.21L439.38 461.59L431.36 502.48C429.43 512.36 422.52 521.07 413.83 524.63L395.51 532.15L392.52 512.57C392.33 511.3 392.24 510.02 392.24 508.72C392.24 500.51 396.03 491.96 402.48 486.13" fill="#EE864A"/>
<path d="M417.6 457.42L376.72 466.79C366.73 469.08 357.79 476.05 353.88 484.61L345.48 503.07L365.66 505.15C366.54 505.24 367.43 505.28 368.34 505.28C376.98 505.28 386.21 501.2 392.58 494.44L421.32 463.9L417.61 457.43L417.6 457.42ZM376.91 467.61L417.18 458.39L420.27 463.78L391.96 493.87C385.76 500.46 376.71 504.45 368.33 504.44C367.46 504.44 366.59 504.4 365.74 504.31L346.73 502.35L354.65 484.96C358.41 476.68 367.17 469.84 376.91 467.61Z" fill="#EE864A"/>
<path d="M258.56 438.68L217.68 448.05C207.69 450.34 198.75 457.31 194.84 465.87L186.44 484.33L206.62 486.41C207.5 486.5 208.4 486.54 209.3 486.54C217.94 486.54 227.17 482.46 233.54 475.7L262.28 445.16L258.57 438.69L258.56 438.68ZM217.86 448.87L258.13 439.65L261.22 445.04L232.91 475.13C226.71 481.72 217.66 485.71 209.28 485.7C208.41 485.7 207.54 485.66 206.69 485.57L187.68 483.61L195.6 466.22C199.37 457.94 208.12 451.1 217.86 448.87Z" fill="#EE864A"/>
</g>
<defs>
<clipPath id="clip0_3125_288">
<rect width="1408.3" height="552.09" fill="white"/>
</clipPath>
</defs>
</svg>
