<svg width="270" height="454" viewBox="0 0 270 454" fill="none" xmlns="http://www.w3.org/2000/svg">
<g clip-path="url(#clip0_8_52)">
<path d="M191.153 261.457L122.94 233.414V217.605L191.153 189.578C207.747 182.759 226.772 186.436 239.633 198.93L267.034 225.524L239.633 252.104C226.757 264.584 207.733 268.261 191.153 261.457Z" stroke="#FF8038" stroke-width="0.770408" stroke-miterlimit="10"/>
<path d="M158.732 329.673L109.529 275.89L116.068 263.006L188.477 271.113C206.083 273.082 221.52 284.707 227.828 300.718L241.239 334.812L205.809 344.048C189.171 348.392 170.682 342.745 158.718 329.673H158.732Z" stroke="#FF8038" stroke-width="0.770408" stroke-miterlimit="10"/>
<path d="M90.3451 370.817L75.3136 299.864L87.0755 292.582L143.787 337.751C157.575 348.739 164.852 366.618 162.334 383.31L156.967 418.866L122.795 407.777C106.751 402.565 94.0053 388.059 90.3451 370.817Z" stroke="#FF8038" stroke-width="0.770408" stroke-miterlimit="10"/>
<path d="M13.7263 376.665L36.4399 308.406H49.2435L71.9427 376.665C77.4692 393.271 74.4889 412.308 64.3763 425.178L42.8345 452.598L21.3071 425.178C11.1945 412.293 8.21424 393.256 13.7407 376.665H13.7263Z" stroke="#FF8038" stroke-width="0.770408" stroke-miterlimit="10"/>
<path d="M-55.6444 342.369L-2.9979 294.262L7.07135 300.241L-9.88433 369.543C-14.0075 386.394 -26.0588 401.378 -40.5695 407.748L-71.4861 421.269L-74.4374 387.639C-75.8263 371.845 -68.4624 354.081 -55.6589 342.384L-55.6444 342.369Z" stroke="#FF8038" stroke-width="0.770408" stroke-miterlimit="10"/>
<path d="M53.9743 78.4369L45.2794 146.696H40.375L31.6946 78.4369C29.5824 61.8317 30.7253 42.7943 34.5881 29.9242L42.8345 2.50452L51.0808 29.9242C54.9581 42.8088 56.0865 61.8462 53.9743 78.4369Z" stroke="#FF8038" stroke-width="0.770408" stroke-miterlimit="10"/>
<path d="M-18.1596 89.7001L5.20506 155.209L-1.29076 159.089L-47.7163 107.304C-59.0008 94.7092 -67.2327 77.4525 -68.6794 63.3229L-71.761 33.2539L-46.8193 50.2935C-35.1008 58.2993 -23.8597 73.7609 -18.1741 89.6857L-18.1596 89.7001Z" stroke="#FF8038" stroke-width="0.770408" stroke-miterlimit="10"/>
<path d="M131.649 107.478L84.4714 158.582L78.0334 154.616L102.353 89.4541C108.27 73.6016 119.743 58.3138 131.577 50.4817L156.779 33.8041L153.263 63.8296C151.614 77.9303 143.136 95.0712 131.664 107.493L131.649 107.478Z" stroke="#FF8038" stroke-width="0.770408" stroke-miterlimit="10"/>
<path d="M178.523 169.498L110.165 183.425L106.867 175.868L163.521 135.129C177.294 125.227 195.508 119.349 209.903 120.174L240.559 121.912L221.014 145.611C211.827 156.744 195.161 166.125 178.538 169.512L178.523 169.498Z" stroke="#FF8038" stroke-width="0.770408" stroke-miterlimit="10"/>
<path d="M189.663 267.175L122.593 236.512L123.2 220.703L192.441 195.34C209.281 189.172 228.146 193.573 240.53 206.559L266.875 234.196L238.476 259.705C225.137 271.677 205.982 274.616 189.663 267.175Z" stroke="#FF8038" stroke-width="0.770408" stroke-miterlimit="10"/>
<path d="M154.623 334.074L107.532 278.438L114.578 265.814L186.611 276.715C204.13 279.365 219.104 291.583 224.79 307.812L236.87 342.398L201.121 350.259C184.325 353.951 166.067 347.61 154.623 334.074Z" stroke="#FF8038" stroke-width="0.770408" stroke-miterlimit="10"/>
<path d="M84.7029 372.539L72.4202 301.051L84.4425 294.233L139.36 341.558C152.714 353.068 159.296 371.222 156.142 387.813L149.401 423.137L115.677 410.744C99.8357 404.925 87.6687 389.926 84.674 372.554L84.7029 372.539Z" stroke="#FF8038" stroke-width="0.770408" stroke-miterlimit="10"/>
<path d="M7.91045 375.435L33.2427 308.102L46.0462 308.594L66.0979 377.679C70.9734 394.472 67.2553 413.394 56.6652 425.873L34.0818 452.438L13.625 424.208C4.01874 410.947 1.7763 391.808 7.93937 375.435H7.91045Z" stroke="#FF8038" stroke-width="0.770408" stroke-miterlimit="10"/>
<path d="M-60.0858 338.475L-5.61647 292.438L4.2213 298.793L-15.3964 367.385C-20.1706 384.063 -32.7861 398.584 -47.5282 404.374L-78.9367 416.694L-80.586 382.977C-81.3528 367.139 -73.309 349.666 -60.0714 338.475H-60.0858Z" stroke="#FF8038" stroke-width="0.770408" stroke-miterlimit="10"/>
<path d="M59.6455 78.9871L48.3176 146.856L43.4132 146.668L37.3659 78.1185C35.8902 61.4553 37.771 42.4614 42.1401 29.7505L51.4426 2.67828L58.6183 30.3875C61.9892 43.4024 62.3943 62.4832 59.6455 78.9871Z" stroke="#FF8038" stroke-width="0.770408" stroke-miterlimit="10"/>
<path d="M-12.8791 87.4417L7.93938 153.819L1.29889 157.439L-43.0868 103.902C-53.8794 90.8873 -61.4313 73.3121 -62.3427 59.1534L-64.2524 28.9832L-39.9763 46.9782C-28.5761 55.4328 -17.9281 71.3142 -12.8646 87.4562L-12.8791 87.4417Z" stroke="#FF8038" stroke-width="0.770408" stroke-miterlimit="10"/>
<path d="M136.149 110.996L87.0321 160.233L80.7388 156.02L107.561 91.8428C114.086 76.2364 126.137 61.3974 138.261 54.0286L164.085 38.3354L159.412 68.2017C157.213 82.23 148.084 99.0234 136.149 110.996Z" stroke="#FF8038" stroke-width="0.770408" stroke-miterlimit="10"/>
<path d="M180.578 174.797L111.728 186.06L108.719 178.372L166.906 139.863C181.055 130.497 199.472 125.343 213.824 126.704L244.393 129.628L223.936 152.545C214.33 163.316 197.316 172.046 180.563 174.782L180.578 174.797Z" stroke="#FF8038" stroke-width="0.770408" stroke-miterlimit="10"/>
<path d="M187.71 273.53L122.028 239.987L123.331 224.221L193.613 201.898C210.699 196.469 229.361 201.695 241.167 215.202L266.282 243.968L236.798 268.217C222.952 279.596 203.682 281.71 187.71 273.545V273.53Z" stroke="#FF8038" stroke-width="0.770408" stroke-miterlimit="10"/>
<path d="M149.791 338.851L105.174 281.218L112.755 268.912L184.252 282.941C201.642 286.343 216.08 299.198 221.043 315.673L231.604 350.751L195.537 357.049C178.596 360.002 160.642 352.865 149.791 338.851Z" stroke="#FF8038" stroke-width="0.770408" stroke-miterlimit="10"/>
<path d="M78.2649 374.233L69.1071 302.282L81.4188 295.999L134.224 345.67C147.071 357.744 152.844 376.173 148.967 392.605L140.706 427.596L107.561 413.741C91.9944 407.227 80.4784 391.736 78.2504 374.233H78.2649Z" stroke="#FF8038" stroke-width="0.770408" stroke-miterlimit="10"/>
<path d="M1.41465 373.77L29.6548 307.609L42.415 308.666L59.4285 378.562C63.5662 395.558 59.0379 414.291 47.8981 426.293L24.1717 451.845L4.95913 422.76C-4.06846 409.094 -5.47179 389.868 1.40018 373.784L1.41465 373.77Z" stroke="#FF8038" stroke-width="0.770408" stroke-miterlimit="10"/>
<path d="M-64.889 333.886L-8.46654 290.266L1.08188 297.056L-21.5016 364.722C-26.9991 381.182 -40.2367 395.124 -55.2248 400.263L-87.1397 411.208L-87.3278 377.447C-87.4146 361.595 -78.6185 344.497 -64.889 333.886Z" stroke="#FF8038" stroke-width="0.770408" stroke-miterlimit="10"/>
<path d="M66.0111 79.8702L51.7463 147.189L46.8564 146.783L43.8038 78.0461C43.066 61.325 45.7569 42.4469 50.6758 29.9242L61.1501 3.28632L67.1106 31.285C69.9173 44.4447 69.4832 63.5111 66.0111 79.8847V79.8702Z" stroke="#FF8038" stroke-width="0.770408" stroke-miterlimit="10"/>
<path d="M-6.80279 85.1544L11.1077 152.372L4.30809 155.701L-37.7049 100.283C-47.9188 86.8047 -54.704 68.9255 -54.9933 54.738L-55.601 24.5098L-32.135 43.5472C-21.1109 52.494 -11.1719 68.8242 -6.81726 85.1688L-6.80279 85.1544Z" stroke="#FF8038" stroke-width="0.770408" stroke-miterlimit="10"/>
<path d="M141.039 115.18L89.8387 162.23L83.748 157.743L113.334 94.7961C120.524 79.4938 133.212 65.1904 145.654 58.3572L172.129 43.8077L166.154 73.4424C163.347 87.3549 153.495 103.743 141.039 115.194V115.18Z" stroke="#FF8038" stroke-width="0.770408" stroke-miterlimit="10"/>
<path d="M182.661 180.848L113.391 189.1L110.715 181.297L170.523 145.35C185.062 136.606 203.696 132.263 217.976 134.261L248.386 138.517L226.96 160.522C216.891 170.859 199.515 178.836 182.661 180.848Z" stroke="#FF8038" stroke-width="0.770408" stroke-miterlimit="10"/>
<path d="M185.583 279.553L121.363 243.288L123.316 227.595L194.466 208.224C211.769 203.519 230.2 209.513 241.427 223.498L265.327 253.277L234.859 276.267C220.551 287.066 201.208 288.355 185.583 279.538V279.553Z" stroke="#FF8038" stroke-width="0.770408" stroke-miterlimit="10"/>
<path d="M144.974 343.238L102.801 283.78L110.889 271.808L181.735 288.804C198.966 292.93 212.854 306.379 217.122 323.057L226.222 358.554L189.924 363.332C172.881 365.576 155.231 357.7 144.974 343.238Z" stroke="#FF8038" stroke-width="0.770408" stroke-miterlimit="10"/>
<path d="M72.0295 375.594L65.8809 303.324L78.453 297.562L129.146 349.39C141.473 362 146.478 380.647 141.921 396.904L132.199 431.519L99.6621 416.289C84.3846 409.137 73.5341 393.169 72.0295 375.594Z" stroke="#FF8038" stroke-width="0.770408" stroke-miterlimit="10"/>
<path d="M-4.73396 371.931L26.2405 307.016L38.9573 308.594L53.0484 379.141C56.4772 396.296 51.1677 414.827 39.536 426.351L14.768 450.889L-3.2149 421.023C-11.6638 406.995 -12.257 387.726 -4.73396 371.946V371.931Z" stroke="#FF8038" stroke-width="0.770408" stroke-miterlimit="10"/>
<path d="M72.0585 80.9704L55.0015 147.623L50.1405 147.015L49.9524 78.2053C49.909 61.4698 53.3956 42.7219 58.8209 30.4164L70.3947 4.22729L75.1834 32.4432C77.4258 45.7042 76.2106 64.7416 72.0585 80.9415V80.9704Z" stroke="#FF8038" stroke-width="0.770408" stroke-miterlimit="10"/>
<path d="M-0.90011 83.2144L14.1893 151.127L7.25943 154.167L-32.4099 97.0401C-42.0596 83.1421 -48.078 65.0022 -47.7742 50.8002L-47.1087 20.5865L-24.4529 40.5794C-13.8194 49.975 -4.56034 66.7105 -0.88565 83.2144H-0.90011Z" stroke="#FF8038" stroke-width="0.770408" stroke-miterlimit="10"/>
<path d="M145.567 119.393L92.4429 164.257L86.5402 159.523L118.73 97.8652C126.557 82.867 139.823 69.1137 152.54 62.8017L179.608 49.3814L172.404 78.741C169.018 92.5232 158.486 108.491 145.567 119.407V119.393Z" stroke="#FF8038" stroke-width="0.770408" stroke-miterlimit="10"/>
<path d="M184.411 186.74L114.853 192.097L112.509 184.178L173.764 150.765C188.665 142.643 207.443 139.067 221.636 141.659L251.844 147.189L229.521 168.282C219.032 178.184 201.338 185.437 184.411 186.74Z" stroke="#FF8038" stroke-width="0.770408" stroke-miterlimit="10"/>
<path d="M183.037 285.879L120.495 246.791L123.142 231.199L195.088 215.014C212.579 211.076 230.721 217.895 241.326 232.358L263.88 263.179L232.414 284.794C217.628 294.942 198.257 295.376 183.052 285.865L183.037 285.879Z" stroke="#FF8038" stroke-width="0.770408" stroke-miterlimit="10"/>
<path d="M139.65 347.668L100.154 286.401L108.762 274.79L178.784 294.928C195.812 299.821 209.093 313.878 212.623 330.715L220.131 366.575L183.659 369.731C166.53 371.208 149.256 362.565 139.65 347.653V347.668Z" stroke="#FF8038" stroke-width="0.770408" stroke-miterlimit="10"/>
<path d="M65.3311 376.752L62.4088 304.28L75.2123 299.083L123.548 353.126C135.309 366.271 139.476 385.12 134.195 401.161L122.94 435.312L91.1119 418.649C76.1671 410.817 66.0256 394.385 65.3167 376.767L65.3311 376.752Z" stroke="#FF8038" stroke-width="0.770408" stroke-miterlimit="10"/>
<path d="M-11.1864 369.673L22.6381 306.191L35.2681 308.333L46.2054 379.43C48.8673 396.716 42.7332 414.986 30.6096 425.989L4.77102 449.398L-11.8664 418.765C-19.6787 404.375 -19.4183 385.105 -11.2009 369.658L-11.1864 369.673Z" stroke="#FF8038" stroke-width="0.770408" stroke-miterlimit="10"/>
<path d="M78.4675 82.4326L58.4592 148.26L53.6271 147.435L56.5061 78.6831C57.2005 61.962 61.5263 43.3879 67.4868 31.3429L80.2035 5.70398L83.7335 34.1081C85.3973 47.4559 83.3285 66.421 78.453 82.4326H78.4675Z" stroke="#FF8038" stroke-width="0.770408" stroke-miterlimit="10"/>
<path d="M5.46548 81.4193L17.5312 149.925L10.4712 152.647L-26.6085 93.8117C-35.6216 79.5083 -40.8443 61.1079 -39.904 46.9348L-37.9075 16.779L-16.1631 37.7708C-5.94922 47.6297 2.54308 64.7561 5.47994 81.4193H5.46548Z" stroke="#FF8038" stroke-width="0.770408" stroke-miterlimit="10"/>
<path d="M150.182 124.083L95.1193 166.545L89.4337 161.55L124.329 101.383C132.821 86.7468 146.681 73.6016 159.658 67.8542L187.29 55.65L178.784 84.6477C174.791 98.2706 163.564 113.747 150.167 124.069L150.182 124.083Z" stroke="#FF8038" stroke-width="0.770408" stroke-miterlimit="10"/>
<path d="M185.988 193.096L116.27 195.354L114.288 187.348L176.961 156.7C192.209 149.244 211.133 146.523 225.195 149.737L255.128 156.599L231.879 176.679C220.956 186.103 202.959 192.56 186.003 193.11L185.988 193.096Z" stroke="#FF8038" stroke-width="0.770408" stroke-miterlimit="10"/>
<path d="M180.607 291.279L119.627 249.788L122.882 234.312L195.392 220.935C213.028 217.678 230.895 225.191 240.921 240.059L262.26 271.735L229.983 292.105C214.822 301.674 195.45 301.355 180.607 291.265V291.279Z" stroke="#FF8038" stroke-width="0.770408" stroke-miterlimit="10"/>
<path d="M134.847 351.359L97.7668 288.601L106.823 277.338L176.006 300.183C192.831 305.742 205.548 320.291 208.427 337.259L214.532 373.379L177.974 375.116C160.801 375.927 143.874 366.618 134.847 351.359Z" stroke="#FF8038" stroke-width="0.770408" stroke-miterlimit="10"/>
<path d="M59.4574 377.534L59.3417 305.004L72.3478 300.299L118.556 356.166C129.797 369.76 133.241 388.754 127.338 404.577L114.78 438.265L83.6178 420.386C68.9769 411.989 59.5008 395.167 59.4719 377.534H59.4574Z" stroke="#FF8038" stroke-width="0.770408" stroke-miterlimit="10"/>
<path d="M-16.7274 367.487L19.5277 305.366L32.0564 308L40.2304 379.474C42.2269 396.861 35.3838 414.87 22.8407 425.395L-3.8804 447.791L-19.317 416.535C-26.5651 401.856 -25.5669 382.601 -16.7418 367.501L-16.7274 367.487Z" stroke="#FF8038" stroke-width="0.770408" stroke-miterlimit="10"/>
<path d="M83.994 83.9238L61.4539 148.926L56.6508 147.913L62.1917 79.3346C63.5372 62.6569 68.5718 44.2565 75.0098 32.4577L88.7103 7.32544L91.1408 35.8453C92.2837 49.2511 89.4771 68.1148 83.994 83.9238Z" stroke="#FF8038" stroke-width="0.770408" stroke-miterlimit="10"/>
<path d="M11.0788 80.0873L20.4825 149.013L13.3212 151.459L-21.4582 91.2202C-29.9215 76.5694 -34.4209 57.9808 -32.9307 43.8656L-29.7624 13.8112L-8.85714 35.6282C0.966152 45.8779 8.79295 63.3229 11.0788 80.0873Z" stroke="#FF8038" stroke-width="0.770408" stroke-miterlimit="10"/>
<path d="M154.03 128.34L97.3618 168.629L91.8642 163.418L129.074 104.655C138.116 90.3661 152.497 77.7565 165.676 72.5303L193.757 61.3974L184.137 90.0476C179.623 103.511 167.803 118.539 154.016 128.34H154.03Z" stroke="#FF8038" stroke-width="0.770408" stroke-miterlimit="10"/>
<path d="M187.146 198.698L117.384 198.249L115.706 190.171L179.522 161.97C195.045 155.108 214.055 153.124 227.987 156.888L257.63 164.909L233.629 184.062C222.359 193.067 204.116 198.814 187.146 198.698Z" stroke="#FF8038" stroke-width="0.770408" stroke-miterlimit="10"/>
<path d="M160.208 327.53L112.61 271.171L119.902 257.142L193.338 263.758C211.205 265.365 226.381 277.41 232.052 294.435L244.104 330.686L207.545 341.631C190.372 346.77 171.796 341.254 160.222 327.545L160.208 327.53Z" stroke="#FF8038" stroke-width="0.770408" stroke-miterlimit="10"/>
<path d="M99.9948 373.09L81.1295 302.658L92.8769 294.247L153.379 334.855C168.092 344.729 176.44 362.174 174.646 379.286L170.827 415.725L135.136 407.574C118.368 403.738 104.566 390.216 99.9803 373.09H99.9948Z" stroke="#FF8038" stroke-width="0.770408" stroke-miterlimit="10"/>
<path d="M20.3523 378.026L39.724 308.131L53.5113 307.103L83.0102 373.35C90.1859 389.463 88.392 408.689 78.4674 422.341L57.3163 451.411L32.0997 425.801C20.2655 413.77 15.636 395.022 20.3523 378.026Z" stroke="#FF8038" stroke-width="0.770408" stroke-miterlimit="10"/>
<path d="M-50.3349 347.856L1.28441 297.78L12.6557 303.686L1.32782 374.725C-1.42096 391.997 -12.8501 407.516 -27.7515 414.277L-59.5072 428.653L-65.9741 394.385C-69.0122 378.287 -62.8781 360.017 -50.3204 347.841L-50.3349 347.856Z" stroke="#FF8038" stroke-width="0.770408" stroke-miterlimit="10"/>
<path d="M122.853 101.832L83.6757 158.38L79.321 156.121L103.076 91.5532C108.849 75.8456 118.643 59.4864 128.018 49.8447L147.968 29.3306L142.644 57.4596C140.142 70.6772 132.373 88.0932 122.853 101.846V101.832Z" stroke="#FF8038" stroke-width="0.770408" stroke-miterlimit="10"/>
<path d="M-18.9987 91.7848L4.64084 157.714L-2.82428 162.52L-52.9535 113.631C-65.1494 101.745 -73.6996 84.6042 -74.7557 69.9823L-77.0126 38.842L-49.6405 53.8258C-36.779 60.8617 -24.7567 75.7587 -18.9987 91.7993V91.7848Z" stroke="#FF8038" stroke-width="0.770408" stroke-miterlimit="10"/>
<path d="M53.656 78.5238L44.1944 147.435L36.6425 147.869L19.3251 80.4927C15.1152 64.1046 15.7662 44.9948 21.0033 31.7917L32.1287 3.69165L46.4079 30.3295C53.1208 42.8377 55.9708 61.7448 53.6705 78.5093L53.656 78.5238Z" stroke="#FF8038" stroke-width="0.770408" stroke-miterlimit="10"/>
<path d="M178.393 163.432L112.986 187.001L109.095 180.501L160.714 133.913C173.272 122.578 190.488 114.311 204.608 112.82L234.656 109.65L217.701 134.652C209.729 146.392 194.307 157.699 178.408 163.432H178.393Z" stroke="#FF8038" stroke-width="0.770408" stroke-miterlimit="10"/>
<path d="M191.385 240.117L124.314 220.921L124.864 212.683L193.902 202.694C210.699 200.262 229.549 203.461 241.948 210.83L268.351 226.523L240.082 238.525C226.801 244.156 207.689 244.793 191.385 240.117Z" stroke="#FF8038" stroke-width="0.770408" stroke-miterlimit="10"/>
<path d="M156.75 331.569L111.178 273.559L118.961 259.792L192.123 269.014C209.917 271.258 224.66 283.824 229.723 301.037L240.472 337.693L203.552 347.335C186.205 351.866 167.832 345.684 156.75 331.584V331.569Z" stroke="#FF8038" stroke-width="0.770408" stroke-miterlimit="10"/>
<path d="M94.9746 374.957L78.6121 303.903L90.6489 295.912L149.675 338.634C164.027 349.029 171.753 366.749 169.365 383.788L164.259 420.068L128.886 410.658C112.263 406.228 98.9532 392.228 94.9746 374.943V374.957Z" stroke="#FF8038" stroke-width="0.770408" stroke-miterlimit="10"/>
<path d="M15.202 377.071L37.0331 307.914L50.8494 307.378L77.99 374.624C84.5871 390.983 82.1132 410.136 71.7112 423.426L49.5473 451.729L25.2567 425.236C13.8565 412.786 9.89246 393.893 15.202 377.071Z" stroke="#FF8038" stroke-width="0.770408" stroke-miterlimit="10"/>
<path d="M-54.3713 344.41L-1.01588 296.187L10.1384 302.499L-3.69233 373.09C-7.04874 390.259 -19.0132 405.359 -34.1605 411.584L-66.3936 424.831L-71.6452 390.361C-74.1047 374.175 -67.334 356.122 -54.3568 344.396L-54.3713 344.41Z" stroke="#FF8038" stroke-width="0.770408" stroke-miterlimit="10"/>
<path d="M127.41 104.67L86.2509 159.798L81.983 157.381L108.01 93.6959C114.332 78.2054 124.705 62.1937 134.412 52.8994L155.072 33.1092L148.75 61.0355C145.784 74.1518 137.407 91.2927 127.396 104.698L127.41 104.67Z" stroke="#FF8038" stroke-width="0.770408" stroke-miterlimit="10"/>
<path d="M-13.993 89.6133L7.30281 156.338L-0.33591 160.87L-48.7001 110.229C-60.462 97.9087 -68.4045 80.4927 -68.9543 65.8274L-70.0972 34.6293L-43.2748 50.5686C-30.6738 58.0532 -19.1868 73.37 -14.0075 89.5988L-13.993 89.6133Z" stroke="#FF8038" stroke-width="0.770408" stroke-miterlimit="10"/>
<path d="M59.0813 78.9292L47.1892 147.464L39.6228 147.638L24.6925 79.6965C21.0612 63.1781 22.3922 44.0973 28.0923 31.0969L40.2014 3.40216L53.5258 30.5323C59.7902 43.2721 61.9747 62.2661 59.0813 78.9437V78.9292Z" stroke="#FF8038" stroke-width="0.770408" stroke-miterlimit="10"/>
<path d="M180.737 168.21L114.534 189.447L110.874 182.817L164.114 138.083C177.062 127.21 194.568 119.537 208.717 118.553L238.852 116.454L221.014 140.848C212.637 152.299 196.824 163.056 180.722 168.21H180.737Z" stroke="#FF8038" stroke-width="0.770408" stroke-miterlimit="10"/>
<path d="M191.009 245.3L124.662 223.729L125.515 215.521L194.871 207.978C211.74 206.14 230.461 210.005 242.599 217.808L268.423 234.428L239.749 245.416C226.28 250.57 207.154 250.526 191.023 245.286L191.009 245.3Z" stroke="#FF8038" stroke-width="0.770408" stroke-miterlimit="10"/>
</g>
<defs>
<clipPath id="clip0_8_52">
<rect width="453" height="453.77" fill="white" transform="translate(-183)"/>
</clipPath>
</defs>
</svg>
