<svg width="469" height="769" viewBox="0 0 469 769" fill="none" xmlns="http://www.w3.org/2000/svg">
<g opacity="0.5" clip-path="url(#clip0_50_792)">
<path d="M463.489 629.249L437.753 508.025L457.891 495.583L554.988 572.755C578.593 591.529 591.052 622.076 586.742 650.595L577.553 711.344L519.047 692.397C491.578 683.492 469.755 658.708 463.489 629.249Z" fill="#F5EDE3"/>
<path d="M332.309 639.267L371.197 522.643H393.118L431.982 639.267C441.444 667.638 436.341 700.164 419.027 722.153L382.145 769L345.288 722.153C327.974 700.139 322.872 667.613 332.334 639.267H332.309Z" fill="#F5EDE3"/>
<path d="M213.539 580.646L303.675 498.453L320.915 508.668L291.885 627.073C284.826 655.864 264.193 681.464 239.349 692.347L186.416 715.45L181.363 657.991C178.985 631.006 191.593 600.656 213.514 580.671L213.539 580.646Z" fill="#F5EDE3"/>
<path d="M135.762 472.209L254.186 443.566L264.044 460.485L180.57 549.109C160.259 570.653 129.817 583.095 102.992 580.794L45.8733 575.872L69.8503 523.88C81.1204 499.467 106.98 479.16 135.787 472.209H135.762Z" fill="#F5EDE3"/>
<path d="M401.218 129.733L386.332 246.357H377.935L363.073 129.733C359.456 101.363 361.413 68.8365 368.027 46.8474L382.145 0L396.264 46.8474C402.902 68.8612 404.834 101.387 401.218 129.733Z" fill="#F5EDE3"/>
<path d="M129.917 342.154L246.705 372.479V389.571L129.917 419.871C101.506 427.241 68.9338 423.259 46.9136 409.754L0 381.012L46.9136 352.271C68.9586 338.766 101.531 334.783 129.917 342.154Z" fill="#F5EDE3"/>
<path d="M177.796 226.372L265.753 307.674L258.198 320.858L143.466 286.279C115.55 277.869 89.0467 258.65 75.8941 237.304L47.9044 191.867L101.308 192.98C126.399 193.499 156.42 206.609 177.821 226.372H177.796Z" fill="#F5EDE3"/>
<path d="M277.717 148.977L317.72 260.901L306.598 267.53L227.113 179.054C207.792 157.535 193.698 128.051 191.221 103.91L185.945 52.5364L228.648 81.649C248.712 95.3273 267.958 121.744 277.692 148.952L277.717 148.977Z" fill="#F5EDE3"/>
<path d="M534.206 179.326L453.432 266.639L442.41 259.862L484.048 148.532C494.178 121.447 513.821 95.3273 534.082 81.9458L577.231 53.4515L571.212 104.751C568.388 128.843 553.873 158.129 534.231 179.351L534.206 179.326Z" fill="#F5EDE3"/>
</g>
<defs>
<clipPath id="clip0_50_792">
<rect width="766" height="769" fill="white"/>
</clipPath>
</defs>
</svg>
