<svg width="237" height="714" viewBox="0 0 237 714" fill="none" xmlns="http://www.w3.org/2000/svg">
<g opacity="0.48">
<path d="M610.603 399.273L502.178 364.083L503.567 350.678L616.898 338.361C644.461 335.375 675.056 341.672 694.89 354.405L737.102 381.539L690.238 399.481C668.229 407.909 636.986 407.816 610.603 399.273ZM593.824 273.444L485.654 308.102L479.683 297.29L566.678 224.27C587.83 206.513 616.435 194.011 639.578 192.39L688.826 188.964L659.689 228.784C645.988 247.491 620.161 265.017 593.848 273.444H593.824ZM395.027 127.728L375.587 239.596L363.228 239.874L338.836 128.978C332.911 102.006 335.086 70.8672 344.39 49.6372L364.177 4.44521L385.955 48.7111C396.184 69.5013 399.748 100.524 395.027 127.728ZM275.609 145.161L310.416 254.066L297.942 261.475L218.909 178.823C199.677 158.728 186.717 130.274 185.815 106.359L183.94 55.4251L227.773 81.4475C248.37 93.6716 267.139 118.675 275.609 145.138V145.161ZM181.348 218.922L264.084 298.98L256.03 313.195L144.759 283.538C117.705 276.338 92.5023 257.724 80.5605 236.147L55.1496 190.191L107.638 188.315C132.285 187.436 161.237 199.428 181.348 218.899V218.922ZM506.668 169.748L439.415 259.715L432.449 255.779L474.985 151.828C485.33 126.547 502.248 100.409 518.124 85.2444L551.889 52.9247L541.568 98.4871C536.708 119.879 523.03 147.846 506.668 169.725V169.748ZM124.995 329.818L236.845 361.629L237.076 380.335L126.013 414.808C99.0054 423.189 67.855 419.207 46.6561 404.714L1.50427 373.783L45.8924 341.811C66.7442 326.808 97.7788 322.086 124.972 329.818H124.995ZM138.58 456.504L252.142 430.505L261.654 447.081L181.834 531.886C162.417 552.514 133.234 564.113 107.476 561.473L52.627 555.824L75.4691 505.678C86.2074 482.133 110.97 462.824 138.58 456.481V456.504ZM209.629 561.034L296.808 482.341L315.022 492.644L292.411 607.869C286.926 635.883 267.37 660.539 242.63 670.703L189.957 692.326L181.371 636.068C177.344 609.652 188.43 580.203 209.605 561.057L209.629 561.034ZM323.33 614.329L359.016 501.441L381.581 500.561L425.922 610.323C436.707 637.017 432.657 668.272 415.67 689.965L379.451 736.152L339.761 692.928C321.131 672.624 314.651 641.763 323.33 614.329ZM453.671 610.879L426.941 494.912L446.612 481.878L543.072 551.611C566.539 568.558 579.152 597.497 575.241 625.302L566.886 684.524L509.075 669.152C481.928 661.928 460.151 639.055 453.671 610.856V610.879ZM554.62 540.058L480.146 445.368L492.852 422.911L612.408 437.959C641.476 441.617 665.591 462.13 673.853 490.236L691.418 550.06L631.084 565.803C602.734 573.188 572.718 563.117 554.62 540.081V540.058ZM611.205 390.8L501.6 359.475L502.502 346.024L615.324 329.726C642.772 325.744 673.575 330.976 693.848 342.991L736.987 368.62L690.793 388.207C669.085 397.398 637.865 398.44 611.205 390.823V390.8ZM589.983 265.665L483.109 304.12L476.744 293.516L561.1 217.487C581.605 198.988 609.77 185.491 632.82 183.06L681.906 177.897L654.181 218.714C641.152 237.883 615.972 256.312 589.983 265.688V265.665ZM386.163 127.056L370.703 239.527L358.345 240.245L330.041 130.297C323.168 103.557 324.232 72.3721 332.772 50.8179L350.962 4.95454L374.291 48.4333C385.26 68.853 389.912 99.7142 386.163 127.079V127.056ZM267.44 148.703L306.088 256.312L293.869 264.16L211.966 184.357C192.04 164.955 178.062 136.988 176.326 113.119L172.646 62.3011L217.381 86.7492C238.395 98.2325 258.044 122.542 267.44 148.726V148.703ZM175.84 225.775L261.376 302.87L253.832 317.363L141.565 291.664C114.257 285.413 88.4291 267.702 75.7236 246.565L48.6927 201.535L101.088 197.808C125.689 196.071 155.034 207.022 175.84 225.775ZM499.216 165.094L435.203 257.4L428.098 253.696L466.909 148.309C476.351 122.681 492.343 95.9636 507.663 80.2436L540.272 46.7664L531.57 92.6761C527.474 114.23 514.791 142.66 499.216 165.118V165.094ZM123.444 338.57L236.359 366.421L237.238 385.104L127.471 423.49C100.787 432.82 69.5213 429.949 47.8133 416.197L1.59684 386.887L44.8278 353.363C65.1473 337.62 95.9968 331.809 123.444 338.57ZM141.519 464.7L254.086 434.695L264.176 450.924L187.388 538.507C168.712 559.807 139.968 572.424 114.118 570.711L59.107 567.007L80.1671 516.096C90.0491 492.181 114.118 471.992 141.496 464.7H141.519ZM216.224 566.636L300.557 484.911L319.118 494.565L300.603 610.509C296.114 638.707 277.437 664.035 253.091 675.055L201.205 698.508L190.628 642.597C185.676 616.343 195.697 586.523 216.201 566.636H216.224ZM331.754 615.88L363.413 501.812L385.931 500.145L434.138 608.263C445.848 634.563 442.932 665.934 426.709 688.229L392.157 735.666L350.962 693.878C331.615 674.245 324.07 643.639 331.754 615.903V615.88ZM461.887 607.823L431.06 492.875L450.246 479.146L549.112 545.429C573.158 561.543 586.789 590.019 583.873 617.94L577.624 677.417L519.304 664.105C491.903 657.854 469.362 635.767 461.863 607.823H461.887ZM560.267 533.483L482.484 441.502L494.402 418.605L614.398 429.417C643.582 432.033 668.414 451.712 677.648 479.47L697.32 538.623L637.588 556.473C609.515 564.854 579.175 555.848 560.244 533.483H560.267ZM604.285 323.197L490.283 322.456L487.552 309.26L591.834 263.234C617.199 252.029 648.28 248.788 671.029 254.923L719.467 268.003L680.24 299.281C661.818 313.959 632.01 323.359 604.285 323.174V323.197ZM550.2 208.365L457.605 274.115L448.626 265.619L509.422 169.702C524.21 146.388 547.677 125.806 569.247 117.263L615.139 99.1122L599.425 145.879C592.042 167.849 572.718 192.367 550.2 208.365ZM316.595 129.626L331.939 242.12L320.252 246.125L263.413 147.823C249.596 123.931 242.237 93.579 244.667 70.5431L249.851 21.4848L284.01 57.092C300.048 73.8075 312.846 102.284 316.595 129.649V129.626ZM208.055 182.365L274.221 275.643L264.57 286.478L164.199 231.609C139.783 218.274 118.816 195.076 110.716 172.572L93.4974 124.602L143.162 136.132C166.49 141.549 191.947 159.7 208.055 182.365ZM140.57 281.2L243.672 332.481L240.316 348.478L125.273 353.873C97.2928 355.192 67.6468 345.075 49.7341 328.128L11.5946 292.035L61.051 274.37C84.2865 266.082 115.506 268.744 140.57 281.223V281.2ZM435.735 135.9L398.891 242.004L391.046 240.36L400.095 128.422C402.294 101.196 410.509 71.1682 421.039 51.906L443.442 10.9045L447.399 57.4624C449.251 79.3407 444.691 110.132 435.735 135.923V135.9ZM120.436 403.927L236.683 400.408L242.561 418.165L147.166 484.633C123.953 500.793 93.0808 506.419 68.4799 499.01L16.0843 483.198L48.6927 439.302C64.0133 418.674 92.1783 404.783 120.436 403.927ZM171.767 520.564L272.138 461.412L286.232 474.331L235.826 579.323C223.561 604.86 199.261 624.747 173.919 630.025L119.95 641.231L126.522 586.523C129.624 560.825 147.374 534.942 171.767 520.541V520.564ZM271.143 598.678L330.388 497.297L350.87 501.603L364.223 618.241C367.463 646.602 356.309 676.028 335.804 693.183L292.133 729.739L266.907 678.713C255.058 654.751 256.701 623.335 271.096 598.678H271.143ZM395.651 615.069L395.466 496.695L416.712 489.032L492.204 580.226C510.579 602.405 516.18 633.406 506.552 659.243L486.025 714.228L435.11 685.034C411.204 671.328 395.698 643.87 395.651 615.093V615.069ZM518.841 572.355L458.253 469.932L473.041 451.549L586.095 488.824C613.588 497.876 634.371 521.653 639.069 549.319L649.043 608.286L589.288 611.134C561.216 612.476 533.56 597.266 518.818 572.355H518.841ZM593.593 474.308L493.939 406.589L499.262 381.331L617.754 359.499C646.567 354.197 675.773 366.467 692.136 390.73L727.012 442.428L674.269 475.673C649.506 491.301 617.824 490.768 593.593 474.308ZM602.41 314.052L488.478 317.733L485.238 304.652L587.645 254.622C612.547 242.444 643.489 237.999 666.447 243.254L715.348 254.46L677.37 287.219C659.527 302.615 630.112 313.149 602.41 314.029V314.052ZM543.882 201.419L453.902 270.712L444.599 262.563L501.623 164.377C515.486 140.507 538.166 119.023 559.365 109.669L604.516 89.7358L590.631 137.081C584.104 159.306 565.752 184.565 543.882 201.419ZM307.431 131.802L327.148 243.625L315.623 248.07L255.012 152.037C240.27 128.677 231.753 98.6723 233.281 75.5439L236.544 26.3235L272.068 60.5648C288.754 76.6551 302.64 104.622 307.431 131.802ZM200.996 188.709L270.726 279.348L261.515 290.553L159.108 239.619C134.206 227.233 112.336 204.892 103.379 182.69L84.3097 135.414L134.368 145.022C157.881 149.536 184.033 166.669 200.996 188.709ZM137.4 290.09L242.422 337.319L239.691 353.433L124.949 363.295C97.0383 365.703 67.0219 356.744 48.4613 340.491L8.93315 305.903L57.6722 286.339C80.5605 277.148 111.85 278.607 137.4 290.09ZM426.709 133.446L394.008 240.893L386.117 239.55L390.815 127.357C391.949 100.061 399.007 69.7328 408.774 50.0771L429.556 8.21892L435.318 54.5916C438.026 76.3773 434.647 107.331 426.709 133.446ZM122.033 413.488L238.048 405.478L244.621 422.98L151.864 493.083C129.3 510.123 98.6583 516.953 73.8028 510.494L20.8518 496.741L51.7476 451.619C66.2582 430.412 93.8446 415.456 122.056 413.488H122.033ZM177.853 528.042L275.841 465.047L290.421 477.41L244.135 584.255C232.887 610.231 209.374 631.067 184.241 637.318L130.734 650.607L135.178 595.691C137.284 569.901 153.993 543.323 177.83 528.019L177.853 528.042ZM280.191 602.267L335.457 498.663L356.1 502.159L373.967 618.195C378.317 646.417 368.297 676.236 348.486 694.179L306.273 732.379L279.104 682.371C266.352 658.872 266.745 627.432 280.191 602.243V602.267ZM405.256 613.819L400.488 495.538L421.41 487.064L500.396 575.272C519.605 596.71 526.432 627.479 517.8 653.663L499.424 709.389L447.399 682.186C422.96 669.406 406.413 642.597 405.256 613.819ZM526.664 566.335L462.141 466.343L476.212 447.405L590.631 480.281C618.448 488.268 640.157 511.211 645.919 538.692L658.185 597.22L598.592 602.382C570.589 604.813 542.355 590.668 526.664 566.358V566.335ZM597.573 465.487L495.374 401.681L499.702 376.237L617.245 349.821C645.826 343.385 675.473 354.521 692.784 378.136L729.627 428.444L678.227 463.704C654.065 480.257 622.406 480.975 597.55 465.464L597.573 465.487ZM599.818 303.703L486.163 312.455L482.345 299.536L582.438 245.014C606.784 231.748 637.472 225.937 660.661 230.15L710.025 239.18L673.552 273.606C656.403 289.766 627.497 301.596 599.842 303.726L599.818 303.703ZM536.337 193.756L449.528 266.985L439.878 259.252L492.481 158.612C505.28 134.141 526.964 111.684 547.724 101.381L591.95 79.4565L580.17 127.357C574.639 149.861 557.444 175.906 536.337 193.71V193.756ZM297.016 134.719L321.687 245.546L310.37 250.501L245.546 157.269C229.786 134.604 219.927 104.97 220.436 81.8179L221.524 32.4818L258.53 65.1256C275.91 80.452 291.022 107.771 297.039 134.719H297.016ZM193.22 196.303L266.907 283.746L258.206 295.345L153.623 249.019C128.189 237.767 105.347 216.398 95.4183 194.636L74.2656 148.263L124.717 155.625C148.416 159.075 175.308 175.05 193.22 196.303ZM134.183 300.416L241.196 342.945L239.182 359.151L124.995 374.107C97.2234 377.742 66.8368 370.125 47.5587 354.729L6.52629 321.924L54.3396 300.207C76.8114 290.021 108.124 290.09 134.16 300.416H134.183ZM416.249 131.061L388.361 239.851L380.423 238.855L380.123 126.547C380.053 99.228 385.746 68.6215 394.61 48.5491L413.518 5.81115L421.34 51.8829C425.02 73.5297 423.006 104.599 416.249 131.038V131.061ZM124.347 424.393L239.9 411.219L247.236 428.421L157.696 502.576C135.918 520.611 105.601 528.806 80.4679 523.458L26.9384 512.068L55.7976 465.603C69.3593 443.771 96.2514 427.588 124.347 424.393ZM185.213 536.354L280.307 469.075L295.419 480.79L253.924 589.603C243.834 616.065 221.27 637.897 196.46 645.259L143.602 660.933L145.615 605.878C146.564 580.018 162.093 552.722 185.213 536.377V536.354ZM290.745 605.925L341.358 499.96L362.141 502.553L385.168 617.686C390.768 645.676 382.09 675.912 363.089 694.734L322.612 734.787L293.221 686.029C279.428 663.132 278.433 631.692 290.745 605.925ZM416.179 611.921L406.135 493.963L426.663 484.564L509.492 569.16C529.649 589.742 537.818 620.163 530.366 646.695L514.49 703.185L461.331 678.32C436.36 666.651 418.609 640.582 416.179 611.898V611.921ZM535.388 559.089L466.469 462.06L479.683 442.52L595.444 470.256C623.609 476.993 646.289 498.941 653.279 526.144L668.136 584.069L608.821 591.871C580.957 595.529 552.121 582.68 535.365 559.089H535.388ZM601.739 455.184L496.786 395.986L499.98 370.38L616.25 338.778C644.531 331.092 674.639 340.885 692.969 363.712L732.011 412.331L682.23 449.859C658.833 467.478 627.243 469.585 601.716 455.207L601.739 455.184ZM596.972 294.072L483.78 307.546L479.406 294.813L577.115 236.147C600.883 221.885 631.316 214.778 654.667 218.042L704.355 224.988L669.34 260.896C652.885 277.75 624.489 290.785 596.949 294.072H596.972ZM528.955 186.88L445.293 263.674L435.318 256.358L483.664 153.611C495.421 128.631 516.157 105.294 536.476 94.1346L579.753 70.4042L569.987 118.768C565.405 141.48 549.297 168.22 528.955 186.903V186.88ZM287.366 137.891L316.642 247.584L305.533 253.001L236.868 162.548C220.182 140.554 209.096 111.359 208.633 88.2078L207.638 38.8948L245.986 69.9643C263.991 84.5498 280.238 111.221 287.366 137.891ZM186.254 203.758L263.528 288.053L255.313 299.999L148.878 258.071C123.005 247.885 99.2831 227.488 88.4522 206.142L65.3788 160.696L116.085 165.951C139.899 168.428 167.439 183.245 186.231 203.734L186.254 203.758ZM131.614 310.232L240.316 348.247L238.974 364.522L125.504 384.225C97.9177 389.017 67.2302 382.673 47.3273 368.088L4.97571 337.018L51.8401 313.311C73.8491 302.175 105.161 300.948 131.591 310.186L131.614 310.232ZM406.344 129.256L383.039 239.11L375.054 238.439L370.055 126.246C368.852 98.9733 373.249 68.1353 381.28 47.7156L398.382 4.23684L408.126 49.9382C412.708 71.3997 412.014 102.539 406.344 129.256ZM126.962 434.51L241.867 416.521L249.92 433.399L163.551 511.234C142.56 530.172 112.613 539.618 87.272 535.312L33.3258 526.167L60.2179 478.544C72.8539 456.18 99.0517 438.886 126.985 434.51H126.962ZM192.433 543.832L284.635 472.641L300.233 483.707L263.32 594.14C254.341 620.996 232.702 643.754 208.217 652.158L156.053 670.008L155.752 614.93C155.613 589.047 169.985 561.149 192.41 543.832H192.433ZM300.789 608.957L346.912 500.978L367.764 502.691L395.582 616.759C402.34 644.495 394.934 675.078 376.744 694.665L337.979 736.361L306.597 688.877C291.855 666.582 289.564 635.211 300.765 608.934L300.789 608.957ZM426.385 609.698L411.435 492.273L431.569 482.017L517.869 563.094C538.86 582.819 548.302 612.87 541.961 639.703L528.446 696.818L474.268 674.199C448.834 663.572 430.019 638.267 426.385 609.721V609.698ZM543.257 551.935L470.357 457.87L482.738 437.797L599.564 460.694C627.983 466.251 651.566 487.249 659.666 514.128L676.931 571.382L618.009 581.662C590.33 586.477 560.985 574.832 543.257 551.958V551.935ZM605.211 445.345L497.897 390.591L500.026 364.87L614.861 328.429C642.795 319.562 673.297 328.105 692.575 350.145L733.631 397.074L685.447 436.64C662.813 455.231 631.339 458.657 605.234 445.345H605.211ZM593.57 284.186L481.072 302.569L476.143 290.021L571.214 227.164C594.334 211.884 624.419 203.457 647.886 205.702L697.829 210.472L664.41 247.885C648.719 265.457 620.902 279.695 593.547 284.186H593.57ZM520.947 180.073L440.688 260.433L430.412 253.557L474.245 148.819C484.891 123.352 504.585 99.1122 524.419 87.0965L566.608 61.4908L558.971 110.225C555.384 133.122 540.457 160.533 520.947 180.073ZM277.437 141.619L311.458 249.945L300.603 255.849L228.074 168.474C210.439 147.221 198.103 118.56 196.622 95.4311L193.498 46.1876L233.142 75.5439C251.772 89.3422 269.152 115.272 277.437 141.595V141.619ZM179.311 211.838L260.196 292.683L252.512 304.976L144.366 267.726C118.052 258.673 93.4743 239.342 81.7177 218.482L56.7002 174.077L107.591 177.11C131.498 178.545 159.663 192.159 179.335 211.814L179.311 211.838ZM129.369 320.581L239.622 353.826L238.997 370.148L126.499 394.782C99.1443 400.778 68.2253 395.777 47.6976 382.071L4.02685 352.877L49.8267 327.156C71.3496 315.071 102.546 312.478 129.369 320.558V320.581ZM395.952 127.82L377.461 238.601L369.454 238.277L359.572 126.408C357.165 99.2048 360.243 68.2279 367.371 47.4609L382.553 3.26448L394.286 48.5028C399.794 69.756 400.442 100.872 395.952 127.82ZM130.133 444.951L244.135 421.985L252.906 438.492L170.008 520.009C149.85 539.827 120.343 550.569 94.8397 547.397L40.5464 540.591L65.3325 491.833C76.9734 468.936 102.384 450.508 130.11 444.928L130.133 444.951ZM200.302 551.31L289.31 476.183L305.371 486.555L273.318 598.493C265.519 625.719 244.898 649.403 220.807 658.849L169.476 678.968L166.791 623.937C165.518 598.076 178.663 569.576 200.325 551.31H200.302ZM311.411 611.666L352.791 501.789L373.712 502.599L406.459 615.347C414.42 642.759 408.357 673.643 391.046 693.993L354.133 737.333L320.715 691.261C305.024 669.615 301.344 638.383 311.411 611.666ZM436.892 606.943L416.827 490.282L436.476 479.169L526.224 556.403C548.048 575.179 558.809 604.813 553.648 631.901L542.632 689.548L487.529 669.314C461.655 659.798 441.752 635.35 436.892 606.966V606.943ZM551.149 544.156L474.222 453.355L485.724 432.75L603.429 450.531C632.056 454.86 656.542 474.794 665.822 501.302L685.563 557.746L627.15 570.572C599.703 576.591 569.871 566.243 551.172 544.156H551.149ZM608.404 434.95L498.799 384.919L499.795 359.128L612.94 317.733C640.457 307.662 671.284 314.862 691.511 336.023L734.556 381.122L688.155 422.749C666.354 442.289 635.042 447.104 608.404 434.927V434.95ZM590.191 275.551L478.48 298.286L473.088 285.946L565.659 219.454C588.177 203.271 617.916 193.71 641.453 195.029L691.557 197.877L659.62 236.54C644.623 254.691 617.384 270.018 590.214 275.551H590.191ZM513.611 174.309L436.522 257.701L425.992 251.218L465.728 144.86C475.379 118.999 494.125 94.0189 513.472 81.2392L554.643 54.036L548.881 103.025C546.173 126.038 532.334 154.005 513.588 174.286L513.611 174.309ZM268.805 145.3L306.991 252.237L296.368 258.557L220.506 174.054C202.061 153.495 188.615 125.32 186.254 102.284L181.209 53.2025L221.964 81.0076C241.126 94.0652 259.478 119.3 268.782 145.3H268.805ZM173.433 219.246L257.372 296.92L250.175 309.514L140.663 276.477C114.025 268.443 88.73 250.084 76.1634 229.687L49.4333 186.278L100.394 187.343C124.347 187.852 152.998 200.354 173.41 219.246H173.433ZM127.749 329.865L239.205 358.827V375.172L127.749 404.135C100.649 411.173 69.5445 407.376 48.5307 394.481L3.77228 367L48.5307 339.542C69.5676 326.646 100.649 322.85 127.749 329.888V329.865ZM386.672 126.94L372.462 238.346H364.455L350.268 126.94C346.82 99.8531 348.671 68.7836 355.012 47.7619L368.482 3.03296L381.951 47.7619C388.269 68.7836 390.143 99.8531 386.695 126.94H386.672ZM133.326 454.096L246.356 426.731L255.752 442.891L176.071 527.556C156.701 548.138 127.633 560.015 102.014 557.815L47.4893 553.116L70.3776 503.432C81.1391 480.095 105.809 460.718 133.303 454.073L133.326 454.096ZM207.569 557.677L293.591 479.146L310.046 488.893L282.344 601.989C275.609 629.493 255.914 653.964 232.193 664.336L181.672 686.423L176.858 631.553C174.59 605.786 186.625 576.777 207.546 557.677H207.569ZM320.9 613.68L358.021 502.275H378.942L416.04 613.68C425.066 640.768 420.206 671.837 403.682 692.859L368.482 737.611L333.304 692.859C316.78 671.837 311.92 640.768 320.923 613.68H320.9ZM446.126 604.119L421.572 488.314L440.78 476.437L533.444 550.152C555.986 568.072 567.858 597.266 563.762 624.515L554.991 682.533L499.147 664.429C472.926 655.932 452.097 632.248 446.126 604.096V604.119ZM557.86 536.956L477.462 449.188L488.154 428.166L606.46 441.386C635.227 444.604 660.453 463.565 670.775 489.703L692.691 545.36L634.81 560.432C607.618 567.516 577.416 558.325 557.86 536.979V536.956ZM610.834 425.643L499.378 379.872V354.058L610.834 308.31C637.935 297.198 669.039 303.194 690.076 323.567L734.834 366.977L690.076 410.363C669.039 430.736 637.958 436.756 610.834 425.62V425.643Z" stroke="#F5EDE3" stroke-width="0.75" stroke-miterlimit="10"/>
</g>
</svg>
