<svg width="1182" height="627" viewBox="0 0 1182 627" fill="none" xmlns="http://www.w3.org/2000/svg">
<path d="M798.223 427.392L792.797 437.068L822.88 475.761L823.251 475.466L823.622 475.17L793.932 436.977L798.717 428.414L846.381 434.479C857.861 435.944 867.387 444.143 870.645 455.364L877.565 479.168L853.817 485.437C851.38 486.084 848.908 486.391 846.471 486.391C837.686 486.391 829.205 482.359 823.611 475.159L823.24 475.454L822.869 475.75C828.643 483.177 837.394 487.345 846.471 487.345C848.987 487.345 851.537 487.027 854.053 486.357L878.744 479.838L871.555 455.08C868.185 443.496 858.355 435.024 846.493 433.513L798.201 427.369L798.223 427.392Z" fill="#F5EDE3"/>
<path d="M779.924 451.264L771.488 456.92L782.294 504.323L782.755 504.221L783.215 504.119L772.555 457.363L779.901 452.434L818.353 480.553C826.509 486.516 831.35 496.192 831.35 505.981C831.35 507.322 831.26 508.673 831.069 510.013L827.801 533.522L805.109 527.423C794.392 524.539 785.776 515.385 783.204 504.119L782.743 504.221L782.283 504.323C784.934 515.941 793.786 525.356 804.862 528.343L828.587 534.726L832.013 510.149C832.204 508.764 832.294 507.367 832.294 505.981C832.294 495.862 827.306 485.914 818.904 479.77L779.924 451.264Z" fill="#F5EDE3"/>
<path d="M754.121 458.953L744.393 459.339L729.969 505.493C728.924 508.832 728.419 512.285 728.419 515.714C728.419 523.914 731.306 531.966 736.664 537.871L752.975 555.838L767.859 536.645C772.218 531.023 774.476 523.868 774.476 516.6C774.476 512.285 773.678 507.935 772.038 503.835L754.121 458.964V458.953ZM730.879 505.766L745.1 460.259L753.492 459.929L771.162 504.176C772.746 508.151 773.532 512.387 773.532 516.577C773.532 523.641 771.33 530.603 767.118 536.032L752.919 554.339L737.372 537.201C732.182 531.489 729.374 523.664 729.374 515.692C729.374 512.353 729.868 508.991 730.879 505.754" fill="#F5EDE3"/>
<path d="M719.724 451.446L684.474 483.631C677.026 490.434 672.656 500.383 672.645 509.99C672.645 511.512 672.757 513.023 672.982 514.51L676.52 537.951L698.223 528.945C708.322 524.743 716.242 514.613 718.488 503.085L727.632 455.966L719.724 451.446ZM685.114 484.347L719.848 452.627L726.565 456.466L717.556 502.904C715.388 514.124 707.626 524.016 697.864 528.059L677.273 536.6L673.914 514.363C673.701 512.921 673.588 511.467 673.588 509.99C673.588 500.666 677.846 490.956 685.091 484.335" fill="#F5EDE3"/>
<path d="M702.088 430.447L656.165 441.088C644.943 443.689 634.901 451.605 630.508 461.326L621.072 482.291L643.741 484.653C644.73 484.755 645.741 484.801 646.752 484.801C656.457 484.801 666.837 480.167 673.982 472.49L706.266 437.806L702.099 430.458L702.088 430.447ZM656.379 442.02L701.616 431.549L705.087 437.67L673.285 471.843C666.32 479.327 656.154 483.858 646.741 483.847C645.763 483.847 644.786 483.801 643.831 483.699L622.476 481.473L631.373 461.724C635.597 452.32 645.438 444.552 656.379 442.02Z" fill="#F5EDE3"/>
<path d="M640.068 388.143C632.272 388.143 624.588 390.38 618.792 394.594L600.425 407.972L619.095 420.907C624.734 424.814 632.07 426.858 639.529 426.858C643.517 426.858 647.538 426.268 651.358 425.075L696.269 410.97L696.168 402.657L650.931 389.642C647.392 388.631 643.708 388.131 640.057 388.131M639.529 425.904C632.238 425.904 625.094 423.894 619.634 420.124L602.077 407.961L619.342 395.377C624.937 391.3 632.441 389.097 640.057 389.108C643.629 389.108 647.235 389.597 650.672 390.585L695.224 403.406L695.303 410.289L651.065 424.178C647.336 425.348 643.416 425.916 639.518 425.916" fill="#F5EDE3"/>
<path d="M822.982 276.255L808.288 290.474C801.851 296.709 795.044 307.35 790.865 317.674L773.633 360.273L777.16 362.295L804.401 325.43C811.007 316.492 816.522 305.102 818.488 296.323L822.982 276.267V276.255ZM776.902 361.034L774.835 359.853L791.741 318.037C795.864 307.839 802.649 297.254 808.94 291.167L821.353 279.151L817.556 296.096C815.635 304.693 810.164 316.015 803.638 324.84L776.891 361.034H776.902Z" fill="#F5EDE3"/>
<path d="M644.876 332.176C644.528 332.176 644.179 332.176 643.831 332.199L621.993 332.983L632.575 352.323C637.451 361.227 647.65 368.825 658.637 371.8L703.66 383.941L707.255 377.524L673.779 344.76C665.882 337.037 654.705 332.188 644.887 332.188M703.188 382.816L658.884 370.869C648.145 367.984 638.113 360.478 633.407 351.858L623.577 333.891L643.876 333.153C644.213 333.142 644.55 333.13 644.887 333.13H644.91C654.413 333.13 665.422 337.889 673.117 345.43L706.064 377.683L703.2 382.816H703.188Z" fill="#F5EDE3"/>
<path d="M673.97 277.857L674.757 299.412C675.127 309.281 680.373 320.899 688.169 329.144L720.151 362.976L725.813 359.58L711.726 314.993C708.288 304.136 700.706 293.915 692.315 288.861L673.97 277.845V277.857ZM720.319 361.761L688.855 328.474C681.216 320.399 676.049 308.929 675.7 299.366L674.981 279.571L691.831 289.679C699.964 294.562 707.468 304.636 710.816 315.277L724.667 359.126L720.308 361.75L720.319 361.761Z" fill="#F5EDE3"/>
<path d="M746.808 256.88L738.45 276.176C736.08 281.65 734.855 288.68 734.855 295.88C734.855 300.184 735.294 304.545 736.192 308.679L746.066 354.084L751.807 353.959L759.681 308.157C760.243 304.886 760.513 301.49 760.513 298.094C760.513 289.929 758.94 281.843 755.997 275.79L746.808 256.892V256.88ZM746.819 353.107L737.113 308.475C736.226 304.42 735.799 300.116 735.799 295.88C735.799 288.793 737.012 281.877 739.304 276.562L746.842 259.163L755.132 276.21C757.996 282.081 759.547 290.065 759.547 298.094C759.547 301.433 759.277 304.784 758.726 307.986L750.987 353.016L746.808 353.107H746.819Z" fill="#F5EDE3"/>
<path d="M878.104 332.381L857.322 333.846C847.897 334.516 836.36 339.626 827.789 346.895L792.573 376.786L795.347 381.874L839.135 367.678C849.784 364.225 860.209 357.071 865.792 349.371L878.093 332.369L878.104 332.381ZM795.808 380.727L793.786 377.025L828.407 347.633C836.821 340.49 848.245 335.447 857.389 334.8L876.138 333.482L865.039 348.814C859.625 356.298 849.324 363.385 838.854 366.769L795.808 380.715V380.727Z" fill="#F5EDE3"/>
<path d="M853.817 392.81C851.93 392.81 850.054 392.913 848.212 393.117L802.346 398.16L801.717 404.372L845.594 418.784L845.74 418.329L845.886 417.875L802.739 403.702L803.222 399.034L848.324 394.082C850.133 393.878 851.975 393.787 853.828 393.787H853.84C863.197 393.787 872.779 396.274 879.317 400.522L895.471 411.027L877.542 417.966C873.229 419.635 867.994 420.476 862.523 420.476C856.963 420.476 851.177 419.613 845.898 417.875L845.752 418.329L845.606 418.784C850.986 420.555 856.873 421.43 862.523 421.43C868.173 421.43 873.431 420.578 877.879 418.852L897.56 411.231L879.834 399.704C873.082 395.32 863.354 392.822 853.828 392.81" fill="#F5EDE3"/>
<path d="M438.44 388.143C430.644 388.143 422.96 390.38 417.164 394.594L398.808 407.972L417.478 420.907C423.117 424.814 430.453 426.858 437.912 426.858C441.9 426.858 445.921 426.268 449.74 425.075L494.652 410.97L494.551 402.657L449.314 389.642C445.786 388.631 442.091 388.131 438.44 388.131M437.9 425.904C430.61 425.904 423.466 423.894 418.006 420.124L400.448 407.961L417.714 395.377C423.308 391.3 430.812 389.097 438.428 389.108C442.001 389.108 445.607 389.597 449.044 390.585L493.596 403.406L493.674 410.289L449.437 424.178C445.708 425.348 441.787 425.916 437.889 425.916" fill="#F5EDE3"/>
<path d="M39.6314 370.449C31.8355 370.449 24.1518 372.686 18.3554 376.9L0 390.278L18.6699 403.213C24.3091 407.12 31.6445 409.164 39.1035 409.164C43.0913 409.164 47.1129 408.574 50.9322 407.381L95.8434 393.276L95.7423 384.963L50.5054 371.948C46.9669 370.937 43.2823 370.438 39.6314 370.438M39.1035 408.21C31.813 408.21 24.6686 406.2 19.2091 402.43L1.65131 390.267L18.917 377.683C24.5113 373.606 32.0152 371.403 39.6314 371.414C43.2037 371.414 46.8096 371.903 50.247 372.891L94.7987 385.712L94.8773 392.595L50.6402 406.484C46.9107 407.654 42.9902 408.222 39.0922 408.222" fill="#F5EDE3"/>
<path d="M443.248 332.176C442.899 332.176 442.551 332.176 442.203 332.199L420.365 332.983L430.947 352.323C435.822 361.227 446.022 368.825 457.008 371.8L502.032 383.941L505.627 377.524L472.151 344.76C464.254 337.037 453.077 332.188 443.259 332.188M501.549 382.816L457.244 370.869C446.505 367.984 436.474 360.478 431.767 351.858L421.938 333.891L442.237 333.153C442.574 333.142 442.911 333.13 443.248 333.13H443.27C452.773 333.13 463.782 337.889 471.477 345.43L504.425 377.683L501.56 382.816H501.549Z" fill="#F5EDE3"/>
<path d="M443.248 314.482C442.899 314.482 442.551 314.482 442.203 314.505L420.365 315.289L430.947 334.629C435.822 343.533 446.022 351.131 457.008 354.106L502.032 366.247L505.627 359.83L472.151 327.066C464.254 319.343 453.077 314.494 443.259 314.494M501.549 365.123L457.244 353.175C446.505 350.29 436.474 342.784 431.767 334.164L421.938 316.197L442.237 315.459C442.574 315.448 442.911 315.436 443.248 315.436H443.27C452.773 315.436 463.782 320.195 471.477 327.736L504.425 359.989L501.56 365.123H501.549Z" fill="#F5EDE3"/>
<path d="M486.732 540.484L451.482 572.669C444.034 579.472 439.664 589.42 439.653 599.028C439.653 600.55 439.765 602.06 439.99 603.548L443.528 626.989L465.231 617.983C475.33 613.781 483.25 603.65 485.496 592.123L494.64 545.004L486.732 540.484ZM452.122 573.384L486.856 541.665L493.573 545.503L484.564 591.941C482.396 603.162 474.634 613.054 464.872 617.097L444.292 625.637L440.933 603.4C440.72 601.958 440.619 600.504 440.619 599.028C440.619 589.704 444.876 579.994 452.122 573.373" fill="#F5EDE3"/>
<path d="M486.732 519.201L451.482 551.386C444.034 558.189 439.664 568.137 439.653 577.745C439.653 579.267 439.765 580.778 439.99 582.265L443.528 605.706L465.231 596.7C475.33 592.498 483.25 582.368 485.496 570.84L494.64 523.721L486.732 519.201ZM452.122 552.102L486.856 520.382L493.573 524.221L484.564 570.659C482.396 581.879 474.634 591.771 464.872 595.814L444.292 604.354L440.933 582.118C440.72 580.675 440.619 579.222 440.619 577.745C440.619 568.421 444.876 558.711 452.122 552.09" fill="#F5EDE3"/>
<path d="M469.107 519.485L423.185 530.126C411.963 532.727 401.92 540.643 397.528 550.364L388.092 571.329L410.761 573.691C411.749 573.793 412.749 573.839 413.771 573.839C423.477 573.839 433.845 569.205 441.001 561.528L473.286 526.844L469.118 519.496L469.107 519.485ZM423.398 531.057L468.635 520.586L472.106 526.708L440.304 560.88C433.34 568.365 423.173 572.896 413.76 572.885C412.783 572.885 411.805 572.839 410.85 572.737L389.496 570.511L398.393 550.761C402.616 541.358 412.457 533.59 423.398 531.057Z" fill="#F5EDE3"/>
<path d="M290.451 498.202L244.529 508.843C233.307 511.444 223.264 519.36 218.872 529.081L209.436 550.046L232.105 552.408C233.093 552.51 234.104 552.556 235.115 552.556C244.821 552.556 255.189 547.922 262.345 540.245L294.63 505.561L290.462 498.213L290.451 498.202ZM244.731 509.775L289.968 499.304L293.439 505.425L261.637 539.598C254.672 547.082 244.506 551.613 235.093 551.602C234.115 551.602 233.138 551.556 232.183 551.454L210.828 549.228L219.725 529.479C223.96 520.075 233.79 512.307 244.731 509.775Z" fill="#F5EDE3"/>
<path d="M1189.33 435.842L1144.59 417.262V406.779L1189.33 388.211C1200.21 383.691 1212.69 386.133 1221.13 394.4L1239.1 412.026L1221.13 429.641C1212.69 437.92 1200.21 440.35 1189.33 435.83" fill="#F5EDE3"/>
<path d="M1168.06 481.042L1135.8 445.404L1140.09 436.864L1187.58 442.236C1199.13 443.542 1209.25 451.242 1213.39 461.849L1222.18 484.438L1198.95 490.559C1188.03 493.432 1175.91 489.696 1168.07 481.031" fill="#F5EDE3"/>
<path d="M1123.21 508.31L1113.34 461.292L1121.06 456.466L1158.25 486.391C1167.3 493.671 1172.07 505.516 1170.42 516.589L1166.89 540.143L1144.48 532.795C1133.96 529.342 1125.6 519.735 1123.19 508.298" fill="#F5EDE3"/>
<path d="M1072.95 512.194L1087.84 466.959H1096.25L1111.13 512.194C1114.75 523.187 1112.79 535.805 1106.16 544.345L1092.03 562.516L1077.91 544.345C1071.27 535.816 1069.33 523.198 1072.95 512.194Z" fill="#F5EDE3"/>
<path d="M1027.45 489.457L1061.98 457.579L1068.59 461.542L1057.47 507.458C1054.76 518.622 1046.86 528.559 1037.34 532.772L1017.06 541.733L1015.13 519.451C1014.22 508.98 1019.05 497.214 1027.45 489.457Z" fill="#F5EDE3"/>
<path d="M997.65 447.403L1043.01 436.296L1046.78 442.86L1014.8 477.237C1007.03 485.596 995.358 490.411 985.079 489.525L963.197 487.617L972.386 467.448C976.699 457.976 986.607 450.106 997.638 447.403" fill="#F5EDE3"/>
<path d="M1099.35 314.573L1093.65 359.796H1090.44L1084.74 314.573C1083.36 303.568 1084.1 290.951 1086.64 282.422L1092.04 264.251L1097.45 282.422C1099.99 290.951 1100.74 303.568 1099.35 314.573Z" fill="#F5EDE3"/>
<path d="M995.414 396.956L1040.15 408.71V415.342L995.414 427.097C984.529 429.959 972.049 428.414 963.612 423.179L945.639 412.026L963.612 400.874C972.049 395.638 984.529 394.094 995.414 396.956Z" fill="#F5EDE3"/>
<path d="M1013.76 352.051L1047.46 383.577L1044.56 388.688L1000.6 375.276C989.91 372.016 979.755 364.555 974.711 356.287L963.983 338.661L984.439 339.093C994.055 339.297 1005.56 344.374 1013.75 352.051" fill="#F5EDE3"/>
<path d="M1052.03 322.035L1067.36 365.452L1063.1 368.019L1032.65 333.71C1025.25 325.362 1019.86 313.926 1018.9 304.568L1016.88 284.637L1033.24 295.925C1040.92 301.229 1048.3 311.473 1052.03 322.035Z" fill="#F5EDE3"/>
<path d="M1150.29 333.812L1119.35 367.678L1115.13 365.043L1131.08 321.864C1134.96 311.359 1142.48 301.229 1150.24 296.039L1166.77 284.989L1164.45 304.886C1163.36 314.233 1157.82 325.589 1150.29 333.823" fill="#F5EDE3"/>
<path d="M1181.03 374.912L1136.2 384.134L1134.03 379.125L1171.19 352.13C1180.23 345.566 1192.17 341.682 1201.61 342.216L1221.72 343.374L1208.91 359.069C1202.88 366.44 1191.94 372.663 1181.05 374.901" fill="#F5EDE3"/>
</svg>
