<svg width="22" height="22" viewBox="0 0 22 22" fill="none" xmlns="http://www.w3.org/2000/svg">
<path d="M5.78753 4.42471C5.84063 5.21233 5.97337 5.98225 6.18576 6.71677L5.12381 7.77873C4.76097 6.71677 4.53088 5.59287 4.45123 4.42471H5.78753ZM14.5133 15.062C15.2655 15.2744 16.0354 15.4071 16.8142 15.4602V16.7788C15.646 16.6992 14.5221 16.4691 13.4513 16.1151L14.5133 15.062ZM6.6371 2.65479H3.53972C3.05299 2.65479 2.65475 3.05302 2.65475 3.53975C2.65475 11.8496 9.38934 18.5842 17.6992 18.5842C18.1859 18.5842 18.5841 18.1859 18.5841 17.6992V14.6107C18.5841 14.1239 18.1859 13.7257 17.6992 13.7257C16.6018 13.7257 15.531 13.5487 14.5398 13.2213C14.4513 13.1859 14.354 13.177 14.2655 13.177C14.0354 13.177 13.8142 13.2655 13.6372 13.4337L11.6902 15.3806C9.1858 14.0974 7.13268 12.0531 5.85833 9.54866L7.80525 7.60174C8.05304 7.35395 8.12384 7.00881 8.02649 6.69907C7.69905 5.70791 7.52206 4.64596 7.52206 3.53975C7.52206 3.05302 7.12383 2.65479 6.6371 2.65479Z" fill="white"/>
</svg>
